<svg width="16" height="16" viewBox="0 0 16 16" fill="none" xmlns="http://www.w3.org/2000/svg">
<g clip-path="url(#clip0_417_5915)">
<path fill-rule="evenodd" clip-rule="evenodd" d="M7.493 0.0150985C7.442 0.0210985 7.268 0.0390985 7.107 0.0550985C5.234 0.242099 3.347 1.2081 2.071 2.6341C0.660001 4.2111 -0.0569991 6.1681 0.00900088 8.2531C0.124001 11.8541 2.599 14.9031 6.11 15.7711C8.169 16.2801 10.433 15.9171 12.227 14.7911C14.017 13.6661 15.27 11.9331 15.771 9.8871C15.943 9.1861 15.983 8.8291 15.983 8.0001C15.983 7.1711 15.943 6.8141 15.771 6.1131C14.979 2.8781 12.315 0.498099 9 0.0640985C8.716 0.0270985 7.683 -0.00590147 7.493 0.0150985ZM8.853 1.5631C9.967 1.7071 11.01 2.1361 11.944 2.8341C12.273 3.0801 12.92 3.7271 13.166 4.0561C13.727 4.8071 14.142 5.6901 14.33 6.5351C14.544 7.5001 14.544 8.5001 14.33 9.4651C13.916 11.3261 12.605 12.9781 10.867 13.8281C10.239 14.1351 9.591 14.3361 8.88 14.4441C8.456 14.5091 7.544 14.5091 7.12 14.4441C5.172 14.1481 3.528 13.0851 2.493 11.4511C2.279 11.1141 1.999 10.5261 1.859 10.1191C1.618 9.4221 1.514 8.7811 1.514 8.0001C1.514 6.9611 1.715 6.0751 2.16 5.1601C2.5 4.4621 2.846 3.9801 3.413 3.4131C3.98 2.8461 4.462 2.5001 5.16 2.1601C6.313 1.5991 7.567 1.3971 8.853 1.5631ZM7.706 4.2901C7.482 4.3631 7.355 4.4911 7.293 4.7051C7.257 4.8271 7.253 5.1061 7.259 6.8161C7.267 8.7861 7.267 8.7871 7.325 8.8961C7.398 9.0331 7.538 9.1571 7.671 9.2041C7.803 9.2501 8.197 9.2501 8.329 9.2041C8.462 9.1571 8.602 9.0331 8.675 8.8961C8.733 8.7871 8.733 8.7861 8.741 6.8161C8.749 4.6641 8.749 4.6621 8.596 4.4811C8.472 4.3331 8.339 4.2841 8.04 4.2761C7.893 4.2721 7.743 4.2781 7.706 4.2901ZM7.786 10.5301C7.597 10.5921 7.41 10.7531 7.319 10.9321C7.249 11.0721 7.237 11.3251 7.294 11.4951C7.388 11.7801 7.697 12.0001 8 12.0001C8.303 12.0001 8.612 11.7801 8.706 11.4951C8.763 11.3251 8.751 11.0721 8.681 10.9321C8.616 10.8041 8.46 10.6461 8.333 10.5801C8.217 10.5201 7.904 10.4911 7.786 10.5301Z" fill="black"/>
</g>
<defs>
<clipPath id="clip0_417_5915">
<rect width="16" height="16" fill="white"/>
</clipPath>
</defs>
</svg>
