<svg width="16" height="16" viewBox="0 0 16 16" fill="none" xmlns="http://www.w3.org/2000/svg">
<path fill-rule="evenodd" clip-rule="evenodd" d="M4.5 5.33325C4.5 3.40026 6.06701 1.83325 8 1.83325C9.6302 1.83325 11.0012 2.9482 11.3897 4.45788C11.4586 4.72531 11.7312 4.8863 11.9986 4.81747C12.2661 4.74864 12.427 4.47605 12.3582 4.20862C11.8587 2.26785 10.0975 0.833252 8 0.833252C5.51472 0.833252 3.5 2.84797 3.5 5.33325V6.20176C3.34878 6.2124 3.20625 6.22624 3.07217 6.24427C2.47209 6.32494 1.96685 6.49754 1.56557 6.89879C1.16429 7.30012 0.991692 7.80532 0.911012 8.40539C0.833306 8.98339 0.833319 9.71825 0.833332 10.63V10.7032C0.833319 11.6149 0.833306 12.3498 0.911012 12.9278C0.991692 13.5279 1.16429 14.0331 1.56557 14.4343C1.96685 14.8357 2.47209 15.0083 3.07217 15.0889C3.65015 15.1666 4.38503 15.1666 5.29675 15.1666H10.7033C11.615 15.1666 12.3499 15.1666 12.9279 15.0889C13.5279 15.0083 14.0331 14.8357 14.4345 14.4343C14.8357 14.0331 15.0083 13.5279 15.089 12.9278C15.1667 12.3498 15.1667 11.6149 15.1667 10.7032V10.63C15.1667 9.71825 15.1667 8.98339 15.089 8.40539C15.0083 7.80532 14.8357 7.30012 14.4345 6.89879C14.0331 6.49754 13.5279 6.32494 12.9279 6.24427C12.3499 6.16656 11.615 6.16657 10.7033 6.16658H5.29675C5.01441 6.16658 4.74902 6.16658 4.5 6.16888V5.33325ZM2.27267 7.60592C2.45718 7.42139 2.71623 7.30112 3.20541 7.23532C3.70898 7.16765 4.37639 7.16658 5.33333 7.16658H10.6667C11.6236 7.16658 12.291 7.16765 12.7946 7.23532C13.2838 7.30112 13.5428 7.42139 13.7273 7.60592C13.9119 7.79045 14.0321 8.04945 14.0979 8.53865C14.1656 9.04225 14.1667 9.70965 14.1667 10.6666C14.1667 11.6235 14.1656 12.2909 14.0979 12.7945C14.0321 13.2837 13.9119 13.5427 13.7273 13.7273C13.5428 13.9118 13.2838 14.0321 12.7946 14.0979C12.291 14.1655 11.6236 14.1666 10.6667 14.1666H5.33333C4.37639 14.1666 3.70898 14.1655 3.20541 14.0979C2.71623 14.0321 2.45718 13.9118 2.27267 13.7273C2.08817 13.5427 1.96787 13.2837 1.9021 12.7945C1.83439 12.2909 1.83333 11.6235 1.83333 10.6666C1.83333 9.70965 1.83439 9.04225 1.9021 8.53865C1.96787 8.04945 2.08817 7.79045 2.27267 7.60592Z" fill="black"/>
</svg>
