<svg width="16" height="16" viewBox="0 0 16 16" fill="none" xmlns="http://www.w3.org/2000/svg">
<g clip-path="url(#clip0_110_2452)">
<path fill-rule="evenodd" clip-rule="evenodd" d="M7.99627 10.3334C9.28493 10.3334 10.3296 9.28875 10.3296 8.00008C10.3296 6.71141 9.28493 5.66675 7.99627 5.66675C6.7076 5.66675 5.66293 6.71141 5.66293 8.00008C5.66293 9.28875 6.7076 10.3334 7.99627 10.3334ZM7.99627 8.99635C7.44607 8.99635 7 8.55028 7 8.00008C7 7.44988 7.44607 7.00381 7.99627 7.00381C8.54647 7.00381 8.99253 7.44988 8.99253 8.00008C8.99253 8.55028 8.54647 8.99635 7.99627 8.99635Z" fill="black"/>
<path fill-rule="evenodd" clip-rule="evenodd" d="M8 3.33325C4.79253 3.33325 2.61113 5.07262 1.45953 6.31977C0.571594 7.28139 0.571595 8.71845 1.45953 9.68005C2.61113 10.9273 4.79253 12.6666 8 12.6666C11.2075 12.6666 13.3889 10.9273 14.5405 9.68005C15.4284 8.71845 15.4284 7.28139 14.5405 6.31977C13.3889 5.07262 11.2075 3.33325 8 3.33325ZM2.43912 7.22432C3.45888 6.11993 5.31127 4.66659 8 4.66659C10.6887 4.66659 12.5411 6.11993 13.5609 7.22432C13.9771 7.67512 13.9771 8.32472 13.5609 8.77552C12.5411 9.87992 10.6887 11.3333 8 11.3333C5.31127 11.3333 3.45888 9.87992 2.43912 8.77552C2.02284 8.32472 2.02284 7.67512 2.43912 7.22432Z" fill="black"/>
</g>
<defs>
<clipPath id="clip0_110_2452">
<rect width="16" height="16" fill="white"/>
</clipPath>
</defs>
</svg>
